PathFileType	4	(X/Y/Z)	D:\TRACE\spotREDO_2-26-24\spot_justArm_Motion_3_5-platform.trc
DataRate	CameraRate	NumFrames	NumMarkers	Units	OrigDataRate	OrigDataStartFrame	OrigNumFrames
100.00	100.00	      60	5	mm	100.00	6126	      7000
Frame#	Time	Left_Front			Right_Front			Left_Aft			Right_Aft			Post			
		X1	Y1	Z1	X2	Y2	Z2	X3	Y3	Z3	X4	Y4	Z4	X5	Y5	Z5	

6126	61.250	-691.54303	26.43202	-566.88562	723.33740	31.11848	-482.48102	-762.25616	-27.08333	651.14063	807.10907	-20.76740	654.88873	17.84580	673.74475	-940.98230	
6127	61.260	-691.47852	26.51286	-566.94379	723.28412	31.26560	-482.48010	-762.26001	-27.09147	651.14795	807.02521	-20.95846	654.83246	17.90612	673.82715	-940.93292	
6128	61.270	-691.47540	26.50822	-566.87445	723.31598	31.27747	-482.50555	-762.24542	-27.12758	651.13251	807.15277	-20.91628	654.80554	17.61208	673.83289	-941.07263	
6129	61.280	-691.40643	26.46239	-566.86707	723.36719	31.31666	-482.43689	-762.17444	-27.11343	651.13196	807.20441	-20.87254	654.90845	17.66261	673.92908	-941.00214	
6130	61.290	-691.40601	26.55156	-566.86981	723.48694	31.37611	-482.39703	-762.16113	-27.13948	651.12524	807.27264	-20.91260	654.90100	17.87950	673.97809	-940.82178	
6131	61.300	-691.29364	26.61362	-566.90106	723.59241	31.40219	-482.35648	-762.06934	-27.13663	651.13824	807.29340	-20.91402	654.93475	17.97582	674.09674	-940.71338	
6132	61.310	-691.20776	26.64861	-566.87744	723.67065	31.40788	-482.37271	-762.03619	-27.15680	651.13660	807.29199	-20.95742	654.99176	18.22874	674.16534	-940.53296	
6133	61.320	-691.14307	26.70367	-566.88300	723.64105	31.40534	-482.34219	-762.00189	-27.19794	651.12958	807.43414	-20.89068	655.09589	18.25790	674.22656	-940.45886	
6134	61.330	-691.03412	26.70271	-566.85687	723.75439	31.46658	-482.33115	-762.03815	-27.22151	651.10651	807.41473	-20.97833	655.08411	18.31711	674.26465	-940.42432	
6135	61.340	-691.00299	26.75060	-566.84161	723.73419	31.46944	-482.38870	-761.97852	-27.24032	651.11603	807.41132	-21.02262	655.02124	18.32906	674.33411	-940.44519	
6136	61.350	-690.94159	26.82391	-566.85895	723.77490	31.44021	-482.34595	-761.88330	-27.32468	651.10559	807.48730	-21.15596	655.06372	18.33211	674.37573	-940.44763	
6137	61.360	-690.89575	26.84614	-566.86560	723.77740	31.50143	-482.36182	-761.89362	-27.34940	651.15485	807.53436	-21.18260	655.08832	18.29499	674.41235	-940.42456	
6138	61.370	-690.81299	26.87504	-566.83215	723.80359	31.47811	-482.32129	-761.83142	-27.38814	651.17059	807.63977	-21.28530	655.12634	18.40139	674.45001	-940.45123	
6139	61.380	-690.78021	26.90452	-566.80896	723.83887	31.52072	-482.28641	-761.76990	-27.44623	651.11224	807.68701	-21.33964	655.11505	18.40941	674.48029	-940.44757	
6140	61.390	-690.75208	26.93401	-566.79059	723.91583	31.52548	-482.29401	-761.72632	-27.53509	651.19244	807.70764	-21.40692	655.18506	18.46186	674.54504	-940.40601	
6141	61.400	-690.68597	26.97668	-566.77557	723.97266	31.59420	-482.25323	-761.74133	-27.56549	651.19952	807.71265	-21.41922	655.15875	18.44148	674.63702	-940.33411	
6142	61.410	-690.60431	27.03006	-566.77081	723.96777	31.62029	-482.27185	-761.72791	-27.58255	651.19690	807.76910	-21.56779	655.16956	18.49541	674.75690	-940.26563	
6143	61.420	-690.55658	27.05354	-566.74188	723.94836	31.78123	-482.28043	-761.70117	-27.62807	651.19867	807.81506	-21.58659	655.25958	18.45191	674.86304	-940.07843	
6144	61.430	-690.56537	27.11275	-566.74268	723.95630	31.77714	-482.22043	-761.69104	-27.67927	651.22565	807.84351	-21.70608	655.25128	18.46787	674.96381	-939.97534	
6145	61.440	-690.55231	27.20525	-566.74243	723.92450	31.79675	-482.20148	-761.65240	-27.78633	651.30798	807.82410	-21.85574	655.12152	18.37500	675.08057	-939.78192	
6146	61.450	-690.55255	27.17266	-566.73315	723.97278	31.86693	-482.13022	-761.68854	-27.80329	651.27936	807.88586	-21.90597	655.21838	18.32239	675.12103	-939.60992	
6147	61.460	-690.53113	27.27087	-566.72784	723.96143	31.90657	-482.14578	-761.69659	-27.82247	651.29968	807.84045	-22.00661	655.20605	18.19210	675.19830	-939.47235	
6148	61.470	-690.62408	27.39258	-566.69666	723.93927	32.09031	-482.22339	-761.67053	-27.84432	651.31293	807.78485	-22.12200	655.04199	18.19529	675.22510	-939.44684	
6149	61.480	-690.57568	27.37696	-566.69135	723.93860	32.13407	-482.17398	-761.71887	-27.86308	651.29138	807.77441	-22.16804	655.11224	18.16465	675.30322	-939.45001	
6150	61.490	-690.63165	27.50807	-566.67578	723.96808	32.19344	-482.11429	-761.68103	-27.92776	651.31799	807.81384	-22.22784	655.17560	18.21963	675.39606	-939.44287	
6151	61.500	-690.65259	27.49876	-566.67078	723.91864	32.11722	-482.07819	-761.66461	-27.97292	651.33716	807.79419	-22.36868	655.04291	18.20894	675.48987	-939.47565	
6152	61.510	-690.69440	27.60332	-566.62628	723.95056	32.13124	-482.11050	-761.66760	-28.06002	651.36975	807.77789	-22.43211	654.99683	18.18830	675.56110	-939.50067	
6153	61.520	-690.72046	27.70093	-566.64667	723.89941	32.28627	-482.04700	-761.60907	-28.10005	651.36823	807.76862	-22.43822	654.99023	18.15502	675.62915	-939.52100	
6154	61.530	-690.78210	27.77640	-566.63177	723.87476	32.41764	-482.13641	-761.67194	-28.10033	651.43378	807.77582	-22.45548	654.97089	18.19393	675.80280	-939.46899	
6155	61.540	-690.83984	27.88036	-566.58405	723.85852	32.43117	-482.14539	-761.65277	-28.19065	651.37537	807.72577	-22.50216	654.94098	18.19212	675.94702	-939.35461	
6156	61.550	-690.83490	27.92835	-566.55811	723.88257	32.43823	-482.11493	-761.74744	-28.27006	651.41364	807.74060	-22.50626	654.97681	18.32526	676.02405	-939.24951	
6157	61.560	-690.79437	27.95291	-566.52466	723.81085	32.49370	-482.15210	-761.76288	-28.36260	651.44458	807.69055	-22.47464	655.04120	18.47386	676.12207	-939.05725	
6158	61.570	-690.89136	28.02782	-566.51935	723.77734	32.51910	-482.04803	-761.68591	-28.68150	651.57544	807.63800	-22.58307	654.95123	18.39565	676.25275	-938.78003	
6159	61.580	-690.99493	28.10921	-566.47931	723.69873	32.55970	-481.94492	-762.00867	-28.50226	651.50848	807.52863	-22.58981	655.00903	18.13808	676.40619	-938.46790	
6160	61.590	-691.13898	28.15501	-566.52820	723.53656	32.60446	-481.91971	-762.07849	-28.82005	651.56219	807.37646	-22.61901	655.09344	17.99767	676.54028	-938.24048	
6161	61.600	-691.27380	28.19393	-566.49292	723.42340	32.59904	-481.86453	-762.27747	-28.90823	651.58289	807.19672	-22.66202	655.12830	17.92515	676.60828	-938.13654	
6162	61.610	-691.52637	28.32682	-566.45215	723.32489	32.58444	-481.84842	-762.39917	-28.93621	651.58392	806.91357	-22.56098	655.22980	17.88288	676.65820	-938.00818	
6163	61.620	-691.70062	28.37522	-566.45001	723.26837	32.61370	-481.83737	-762.50488	-28.94568	651.56720	806.86688	-22.60153	655.26007	17.76624	676.68628	-937.89905	
6164	61.630	-691.76324	28.40621	-566.46167	723.23999	32.62625	-481.81711	-762.54584	-28.97738	651.55792	806.79663	-22.57548	655.30133	17.72671	676.71570	-937.88257	
6165	61.640	-691.89014	28.42969	-566.43054	723.14191	32.64880	-481.83801	-762.67993	-29.01970	651.55017	806.71765	-22.54798	655.32416	17.64796	676.77136	-937.93939	
6166	61.650	-692.01288	28.43492	-566.42969	723.01556	32.80493	-481.94870	-762.63470	-28.94748	651.54156	806.66980	-22.51651	655.33710	17.52790	676.80908	-938.02692	
6167	61.660	-692.10901	28.45237	-566.41809	722.89606	32.88780	-481.92239	-762.97363	-28.73544	651.44128	806.61383	-22.55578	655.38306	17.27155	676.91467	-938.21136	
6168	61.670	-692.22980	28.46568	-566.38672	722.69696	32.85910	-481.90231	-763.10236	-28.78197	651.44666	806.43671	-22.60362	655.46271	17.03852	676.92200	-938.35730	
6169	61.680	-692.40039	28.47677	-566.33667	722.59125	32.93659	-481.88965	-763.07764	-29.10207	651.59137	806.25409	-22.67030	655.51471	16.79141	676.98206	-938.42688	
6170	61.690	-692.61554	28.51604	-566.33289	722.36792	33.00738	-481.93890	-763.16034	-29.10858	651.60608	806.13666	-22.68896	655.53632	16.65305	677.06677	-938.42657	
6171	61.700	-692.75708	28.54946	-566.24188	722.10236	33.05930	-482.00769	-763.34906	-29.18207	651.58215	805.99084	-22.83724	655.56000	16.42653	677.12384	-938.33295	
6172	61.710	-692.90613	28.53809	-566.21436	721.84186	33.07785	-482.00406	-763.55725	-29.24150	651.55811	805.84088	-22.99072	655.53033	16.27378	677.20435	-938.19781	
6173	61.720	-693.00159	28.52362	-566.19415	721.51678	33.09628	-481.98892	-763.75787	-28.85098	651.61591	805.62115	-23.06921	655.55463	15.66714	677.30219	-938.07800	
6174	61.730	-693.12537	28.53278	-566.16321	721.43243	33.12054	-482.02527	-763.96436	-29.11749	651.49786	805.31091	-23.14689	655.56854	15.46413	677.33380	-937.96198	
6175	61.740	-693.25751	28.53189	-566.18750	721.24585	33.17479	-482.05576	-764.07104	-29.15891	651.49365	805.17944	-23.12245	655.55042	15.25715	677.38037	-937.70154	
6176	61.750	-693.40778	28.45729	-566.19708	721.04150	33.20981	-481.95016	-764.27161	-29.10697	651.54156	804.98895	-23.14402	655.47693	15.51231	677.46246	-937.55090	
6177	61.760	-693.62085	28.42703	-566.25391	720.91431	33.20251	-481.96201	-764.44226	-29.10153	651.54315	804.75037	-23.25977	655.41577	15.40505	677.29004	-937.49298	
6178	61.770	-693.79529	28.41074	-566.27258	720.79413	33.17748	-481.94818	-764.76654	-29.06178	651.54614	804.46143	-23.23430	655.39343	15.03688	677.21912	-937.39941	
6179	61.780	-693.87427	28.31379	-566.27570	720.73468	33.16671	-481.93430	-764.97308	-29.02917	651.50800	804.24457	-23.17726	655.28729	14.83002	677.14832	-937.52307	
6180	61.790	-694.09961	28.30772	-566.24463	720.60175	33.13025	-481.88467	-765.18134	-28.96749	651.54761	803.66803	-23.39357	655.29156	14.55178	677.09357	-937.81903	
6181	61.800	-694.27753	28.28311	-566.29749	720.49982	33.07345	-481.81277	-765.34113	-28.94346	651.58655	804.03528	-23.22614	655.28131	14.34272	677.02313	-938.17377	
6182	61.810	-694.49371	28.32773	-566.30914	720.31732	33.01895	-481.81039	-765.55634	-28.97898	651.56500	803.73584	-23.38995	655.26288	14.28003	677.01111	-938.40137	
6183	61.820	-694.55957	28.30172	-566.29425	720.16650	32.99396	-481.82315	-765.70160	-28.98904	651.58813	803.60083	-23.31077	655.28516	14.30478	677.00922	-938.50708	
6184	61.830	-694.82019	28.31673	-566.29230	719.95557	32.95592	-481.83765	-765.82312	-29.00332	651.60461	803.40076	-23.17940	655.34198	14.23360	677.00671	-938.57507	
6185	61.840	-695.07666	28.36818	-566.27454	719.71906	32.89002	-481.81326	-765.96252	-29.01321	651.58954	803.16559	-23.12320	655.39282	14.11561	676.97418	-938.62909	
